<svg width="36" height="9" viewBox="0 0 36 9" fill="none" xmlns="http://www.w3.org/2000/svg">
<path d="M33.8092 8.64C33.1772 8.64 32.6932 8.46 32.3572 8.1C32.0292 7.74 31.8652 7.232 31.8652 6.576V2.064C31.8652 1.408 32.0292 0.9 32.3572 0.54C32.6932 0.18 33.1772 0 33.8092 0C34.4412 0 34.9212 0.18 35.2492 0.54C35.5852 0.9 35.7532 1.408 35.7532 2.064V2.952H34.5052V1.98C34.5052 1.46 34.2852 1.2 33.8452 1.2C33.4052 1.2 33.1852 1.46 33.1852 1.98V6.672C33.1852 7.184 33.4052 7.44 33.8452 7.44C34.2852 7.44 34.5052 7.184 34.5052 6.672V5.388H35.7532V6.576C35.7532 7.232 35.5852 7.74 35.2492 8.1C34.9212 8.46 34.4412 8.64 33.8092 8.64Z" fill="white"/>
<path d="M29.8806 0.119141H31.2006V8.51914H29.8806V0.119141Z" fill="white"/>
<path d="M26.7815 1.31914H25.4015V0.119141H29.4815V1.31914H28.1015V8.51914H26.7815V1.31914Z" fill="white"/>
<path d="M22.7439 0.119141H24.5319L25.8999 8.51914H24.5799L24.3399 6.85114V6.87514H22.8399L22.5999 8.51914H21.3759L22.7439 0.119141ZM24.1839 5.73514L23.5959 1.58314H23.5719L22.9959 5.73514H24.1839Z" fill="white"/>
<path d="M15.5068 0.119141H17.3908L18.2308 6.13114H18.2548L19.0948 0.119141H20.9788V8.51914H19.7308V2.15914H19.7068L18.7468 8.51914H17.6428L16.6828 2.15914H16.6588V8.51914H15.5068V0.119141Z" fill="white"/>
<path d="M11.3875 0.119141H14.9875V1.31914H12.7075V3.53914H14.5195V4.73914H12.7075V7.31914H14.9875V8.51914H11.3875V0.119141Z" fill="white"/>
<path d="M6.50635 0.119141H8.16235L9.44635 5.14714H9.47035V0.119141H10.6463V8.51914H9.29035L7.70635 2.38714H7.68235V8.51914H6.50635V0.119141Z" fill="white"/>
<path d="M4.43774 0.119141H5.75774V8.51914H4.43774V0.119141Z" fill="white"/>
<path d="M1.944 8.64C1.312 8.64 0.828 8.46 0.492 8.1C0.164 7.74 0 7.232 0 6.576V2.064C0 1.408 0.164 0.9 0.492 0.54C0.828 0.18 1.312 0 1.944 0C2.576 0 3.056 0.18 3.384 0.54C3.72 0.9 3.888 1.408 3.888 2.064V2.952H2.64V1.98C2.64 1.46 2.42 1.2 1.98 1.2C1.54 1.2 1.32 1.46 1.32 1.98V6.672C1.32 7.184 1.54 7.44 1.98 7.44C2.42 7.44 2.64 7.184 2.64 6.672V5.388H3.888V6.576C3.888 7.232 3.72 7.74 3.384 8.1C3.056 8.46 2.576 8.64 1.944 8.64Z" fill="white"/>
</svg>
